[Header]
FileType HTR
DataType HTRS
FileVersion 1
NumSegments 64
NumFrames 4
DataFrameRate 30
EulerRotationOrder ZYX
CalibrationUnits mm
RotationUnits Degrees
GlobalAxisofGravity Y
BoneLengthAxis Y
ScaleFactor 1.0
[SegmentNames&Hierarchy]
Hips	GLOBAL
Spine	Hips
Spine1	Spine
Spine2	Spine1
Neck	Spine2
Head	Neck
LeftEye	Head
RightEye	Head
LeftShoulder	Spine2
LeftArm	LeftShoulder
LeftForeArm	LeftArm
LeftHand	LeftForeArm
LeftHandThumb1	LeftHand
LeftHandThumb2	LeftHandThumb1
LeftHandThumb3	LeftHandThumb2
LeftHandThumb4	LeftHandThumb3
LeftHandIndex1	LeftHand
LeftHandIndex2	LeftHandIndex1
LeftHandIndex3	LeftHandIndex2
LeftHandIndex4	LeftHandIndex3
LeftHandMiddle1	LeftHand
LeftHandMiddle2	LeftHandMiddle1
LeftHandMiddle3	LeftHandMiddle2
LeftHandMiddle4	LeftHandMiddle3
LeftHandRing1	LeftHand
LeftHandRing2	LeftHandRing1
LeftHandRing3	LeftHandRing2
LeftHandRing4	LeftHandRing3
LeftHandPinky1	LeftHand
LeftHandPinky2	LeftHandPinky1
LeftHandPinky3	LeftHandPinky2
LeftHandPinky4	LeftHandPinky3
RightShoulder	Spine2
RightArm	RightShoulder
RightForeArm	RightArm
RightHand	RightForeArm
RightHandPinky1	RightHand
RightHandPinky2	RightHandPinky1
RightHandPinky3	RightHandPinky2
RightHandPinky4	RightHandPinky3
RightHandRing1	RightHand
RightHandRing2	RightHandRing1
RightHandRing3	RightHandRing2
RightHandRing4	RightHandRing3
RightHandMiddle1	RightHand
RightHandMiddle2	RightHandMiddle1
RightHandMiddle3	RightHandMiddle2
RightHandMiddle4	RightHandMiddle3
RightHandIndex1	RightHand
RightHandIndex2	RightHandIndex1
RightHandIndex3	RightHandIndex2
RightHandIndex4	RightHandIndex3
RightHandThumb1	RightHand
RightHandThumb2	RightHandThumb1
RightHandThumb3	RightHandThumb2
RightHandThumb4	RightHandThumb3
LeftUpLeg	Hips
LeftLeg	LeftUpLeg
LeftFoot	LeftLeg
LeftToeBase	LeftFoot
RightUpLeg	Hips
RightLeg	RightUpLeg
RightFoot	RightLeg
RightToeBase	RightFoot
[BasePosition]
Hips	0	0	0	0	0	0	1
Spine	0	0	0	0	0	0	1
Spine1	0	0	0	0	0	0	1
Spine2	0	0	0	0	0	0	1
Neck	0	0	0	0	0	0	1
Head	0	0	0	0	0	0	1
LeftEye	0	0	0	0	0	0	1
RightEye	0	0	0	0	0	0	1
LeftShoulder	0	0	0	0	0	0	1
LeftArm	0	0	0	0	0	0	1
LeftForeArm	0	0	0	0	0	0	1
LeftHand	0	0	0	0	0	0	1
LeftHandThumb1	0	0	0	0	0	0	1
LeftHandThumb2	0	0	0	0	0	0	1
LeftHandThumb3	0	0	0	0	0	0	1
LeftHandThumb4	0	0	0	0	0	0	1
LeftHandIndex1	0	0	0	0	0	0	1
LeftHandIndex2	0	0	0	0	0	0	1
LeftHandIndex3	0	0	0	0	0	0	1
LeftHandIndex4	0	0	0	0	0	0	1
LeftHandMiddle1	0	0	0	0	0	0	1
LeftHandMiddle2	0	0	0	0	0	0	1
LeftHandMiddle3	0	0	0	0	0	0	1
LeftHandMiddle4	0	0	0	0	0	0	1
LeftHandRing1	0	0	0	0	0	0	1
LeftHandRing2	0	0	0	0	0	0	1
LeftHandRing3	0	0	0	0	0	0	1
LeftHandRing4	0	0	0	0	0	0	1
LeftHandPinky1	0	0	0	0	0	0	1
LeftHandPinky2	0	0	0	0	0	0	1
LeftHandPinky3	0	0	0	0	0	0	1
LeftHandPinky4	0	0	0	0	0	0	1
RightShoulder	0	0	0	0	0	0	1
RightArm	0	0	0	0	0	0	1
RightForeArm	0	0	0	0	0	0	1
RightHand	0	0	0	0	0	0	1
RightHandPinky1	0	0	0	0	0	0	1
RightHandPinky2	0	0	0	0	0	0	1
RightHandPinky3	0	0	0	0	0	0	1
RightHandPinky4	0	0	0	0	0	0	1
RightHandRing1	0	0	0	0	0	0	1
RightHandRing2	0	0	0	0	0	0	1
RightHandRing3	0	0	0	0	0	0	1
RightHandRing4	0	0	0	0	0	0	1
RightHandMiddle1	0	0	0	0	0	0	1
RightHandMiddle2	0	0	0	0	0	0	1
RightHandMiddle3	0	0	0	0	0	0	1
RightHandMiddle4	0	0	0	0	0	0	1
RightHandIndex1	0	0	0	0	0	0	1
RightHandIndex2	0	0	0	0	0	0	1
RightHandIndex3	0	0	0	0	0	0	1
RightHandIndex4	0	0	0	0	0	0	1
RightHandThumb1	0	0	0	0	0	0	1
RightHandThumb2	0	0	0	0	0	0	1
RightHandThumb3	0	0	0	0	0	0	1
RightHandThumb4	0	0	0	0	0	0	1
LeftUpLeg	0	0	0	0	0	0	1
LeftLeg	0	0	0	0	0	0	1
LeftFoot	0	0	0	0	0	0	1
LeftToeBase	0	0	0	0	0	0	1
RightUpLeg	0	0	0	0	0	0	1
RightLeg	0	0	0	0	0	0	1
RightFoot	0	0	0	0	0	0	1
RightToeBase	0	0	0	0	0	0	1
[Hips]
26	-12.17761517	1010.786438	2.841062546	6.231807232	-2.050100088	-9.269351006	1.0
27	-12.53294182	1010.938965	3.656086922	5.957741261	-2.00949955	-9.151909828	1.0
28	-12.917099	1011.166748	4.404167175	5.705073833	-2.010135889	-9.036756516	1.0
29	-13.32273483	1011.390991	5.038719177	5.467483521	-2.036749125	-8.922257423	1.0
[Spine]
26	0	101.8159943	1.315000057	5.078957081	1.612888336	1.829822898	1.0
27	0	101.8159943	1.315000057	5.025745392	1.59349978	1.834656596	1.0
28	0	101.8159943	1.315000057	4.9793787	1.59896481	1.847364545	1.0
29	0	101.8159943	1.315000057	4.942979336	1.620669961	1.860899091	1.0
[Spine1]
26	0	100.8349991	-10.00800037	2.960056305	0.5486463904	0.1713870913	1.0
27	0	100.8349991	-10.00800037	2.907403469	0.5261964202	0.1793654114	1.0
28	0	100.8349991	-10.00800037	2.856724024	0.5386270285	0.1929780692	1.0
29	0	100.8349991	-10.00800037	2.813370466	0.5745464563	0.2119674981	1.0
[Spine2]
26	0	91	-13.73399925	2.940517187	0.5966057181	0.1838950217	1.0
27	0	91	-13.73399925	2.887922049	0.5735577941	0.1924481839	1.0
28	0	91	-13.73399925	2.837047577	0.5848741531	0.2059789598	1.0
29	0	91	-13.73399925	2.793419361	0.619895041	0.2248946279	1.0
[Neck]
26	0	166.7169952	-25.16200066	6.14891243	1.082322001	-3.941393375	1.0
27	0	166.7169952	-25.16200066	6.191527367	1.073239088	-3.795667887	1.0
28	0	166.7169952	-25.16200066	6.2072649	1.07645762	-3.642557859	1.0
29	0	166.7169952	-25.16200066	6.187013626	1.082197547	-3.464021206	1.0
[Head]
26	0	96.17900085	16.84999847	-23.24251556	6.424631119	-0.3885033131	1.0
27	0	96.17900085	16.84999847	-22.96277428	6.143990517	-0.3363179862	1.0
28	0	96.17900085	16.84999847	-22.57619858	5.898265362	-0.2294996679	1.0
29	0	96.17900085	16.84999847	-22.18496513	5.675104618	-0.08401890844	1.0
[LeftEye]
26	30.6760006	64.09500122	92.83599854	0	0	0	1.0
27	30.6760006	64.09500122	92.83599854	0	0	0	1.0
28	30.6760006	64.09500122	92.83599854	0	0	0	1.0
29	30.6760006	64.09500122	92.83599854	0	0	0	1.0
[RightEye]
26	-30.6760006	64.09500122	92.83499908	0	0	0	1.0
27	-30.6760006	64.09500122	92.83499908	0	0	0	1.0
28	-30.6760006	64.09500122	92.83499908	0	0	0	1.0
29	-30.6760006	64.09500122	92.83499908	0	0	0	1.0
[LeftShoulder]
26	45.70400238	109.4599991	-26.28000069	5.491086483	-17.05536079	-16.27812576	1.0
27	45.70400238	109.4599991	-26.28000069	5.551208496	-17.26659012	-16.28646469	1.0
28	45.70400238	109.4599991	-26.28000069	5.561303139	-17.33836174	-16.22984695	1.0
29	45.70400238	109.4599991	-26.28000069	5.532173157	-17.27557182	-16.16141129	1.0
[LeftArm]
26	105.923996	-5.24600029	-22.32099915	18.48808861	-12.478405	-59.51755524	1.0
27	105.923996	-5.24600029	-22.32099915	18.65361404	-12.18715763	-59.9131279	1.0
28	105.923996	-5.24600029	-22.32099915	18.63532257	-11.86644459	-60.3155365	1.0
29	105.923996	-5.24600029	-22.32099915	18.426054	-11.51728249	-60.64406204	1.0
[LeftForeArm]
26	278.414978	-0.0009999999311	0	-6.777039516e-07	-5.297781467	-0.000196120629	1.0
27	278.414978	-0.0009999999311	0	-1.338494712e-06	-4.499399662	-0.0002036719088	1.0
28	278.414978	-0.0009999999311	0	8.839566021e-07	-3.866007566	-0.0002146080369	1.0
29	278.414978	-0.0009999999311	0	1.769776645e-06	-3.410770893	-0.0002232977131	1.0
[LeftHand]
26	283.2879944	0	0	-34.13507462	0.6814239025	5.142305851	1.0
27	283.2879944	0	0	-33.19950867	1.345642686	5.349730492	1.0
28	283.2879944	0	0	-32.69142532	1.531491399	5.427260876	1.0
29	283.2879944	0	0	-32.85329437	1.241309762	5.468905926	1.0
[LeftHandThumb1]
26	24.6609993	-15.75	26.8239994	-6.33284235	0.4078730047	7.410558224	1.0
27	24.6609993	-15.75	26.8239994	-5.919422626	0.8880429268	7.465768337	1.0
28	24.6609993	-15.75	26.8239994	-5.706586361	1.374048352	7.674740314	1.0
29	24.6609993	-15.75	26.8239994	-5.60399437	1.748704553	7.878106594	1.0
[LeftHandThumb2]
26	32.29800034	-18.64699936	18.64699936	19.67824936	20.61285973	17.44945526	1.0
27	32.29800034	-18.64699936	18.64699936	19.68822098	20.34626961	17.55332947	1.0
28	32.29800034	-18.64699936	18.64699936	19.69524956	20.12111855	17.58111	1.0
29	32.29800034	-18.64699936	18.64699936	19.70240784	19.90481186	17.58914375	1.0
[LeftHandThumb3]
26	26.52600098	-15.31499958	15.31499958	-11.94983482	3.355742455	9.281888008	1.0
27	26.52600098	-15.31499958	15.31499958	-12.09066296	3.522318602	9.443040848	1.0
28	26.52600098	-15.31499958	15.31499958	-12.21995258	3.665932417	9.626374245	1.0
29	26.52600098	-15.31499958	15.31499958	-12.33577251	3.792406321	9.798464775	1.0
[LeftHandThumb4]
26	19.54599953	-11.28499985	11.28499985	0	0	0	1.0
27	19.54599953	-11.28499985	11.28499985	0	0	0	1.0
28	19.54599953	-11.28499985	11.28499985	0	0	0	1.0
29	19.54599953	-11.28499985	11.28499985	0	0	0	1.0
[LeftHandIndex1]
26	91.09299469	-5.170999527	22.60099792	-0.1108040661	-0.5986277461	-11.8876009	1.0
27	91.09299469	-5.170999527	22.60099792	-0.09839624912	-0.5709462166	-11.83295441	1.0
28	91.09299469	-5.170999527	22.60099792	-0.03068423644	-0.5762588382	-11.52190208	1.0
29	91.09299469	-5.170999527	22.60099792	0.07277476043	-0.5924094319	-11.11846828	1.0
[LeftHandIndex2]
26	36.76399994	0	0	-0.2545450628	1.705856919	-16.97275352	1.0
27	36.76399994	0	0	-0.2547048628	1.706375241	-16.9780674	1.0
28	36.76399994	0	0	-0.2555010021	1.708984375	-17.00482941	1.0
29	36.76399994	0	0	-0.2564739287	1.712151647	-17.03735161	1.0
[LeftHandIndex3]
26	28.83100128	0	0	-0.05181020498	0.7765060067	-7.634288788	1.0
27	28.83100128	0	0	-0.05189233646	0.7771165967	-7.640367508	1.0
28	28.83100128	0	0	-0.05225772038	0.7798434496	-7.667312145	1.0
29	28.83100128	0	0	-0.05269702896	0.7831141949	-7.699647903	1.0
[LeftHandIndex4]
26	23.92700005	0	0	0	0	0	1.0
27	23.92700005	0	0	0	0	0	1.0
28	23.92700005	0	0	0	0	0	1.0
29	23.92700005	0	0	0	0	0	1.0
[LeftHandMiddle1]
26	95.33399963	0	0	-1.064898968	2.980034828	-19.55854225	1.0
27	95.33399963	0	0	-1.086063981	2.969765663	-19.84762383	1.0
28	95.33399963	0	0	-1.107346058	2.946261406	-20.13698578	1.0
29	95.33399963	0	0	-1.125101566	2.928386927	-20.37713051	1.0
[LeftHandMiddle2]
26	36.98199844	0	0	-0.2402937859	1.658457279	-16.48719406	1.0
27	36.98199844	0	0	-0.2398819178	1.65707016	-16.47298431	1.0
28	36.98199844	0	0	-0.2399639785	1.657348394	-16.47584724	1.0
29	36.98199844	0	0	-0.2405829132	1.659432292	-16.49715805	1.0
[LeftHandMiddle3]
26	29.50900078	0	0	-0.2703076005	1.75664854	-17.49447441	1.0
27	29.50900078	0	0	-0.2698776424	1.755280018	-17.48041534	1.0
28	29.50900078	0	0	-0.2699728906	1.755580902	-17.48352051	1.0
29	29.50900078	0	0	-0.2706307769	1.757674932	-17.5050869	1.0
[LeftHandMiddle4]
26	28.3390007	0	0	0	0	0	1.0
27	28.3390007	0	0	0	0	0	1.0
28	28.3390007	0	0	0	0	0	1.0
29	28.3390007	0	0	0	0	0	1.0
[LeftHandRing1]
26	91.04499817	-0.4390000105	-18.65100098	-1.521524429	3.674425364	-25.45751572	1.0
27	91.04499817	-0.4390000105	-18.65100098	-1.534879446	3.685573339	-25.62150955	1.0
28	91.04499817	-0.4390000105	-18.65100098	-1.546909332	3.695858955	-25.76886368	1.0
29	91.04499817	-0.4390000105	-18.65100098	-1.557495236	3.70522213	-25.89827156	1.0
[LeftHandRing2]
26	31.54000092	0	0	-0.586622417	2.551156998	-25.89544106	1.0
27	31.54000092	0	0	-0.588781178	2.555603981	-25.94392395	1.0
28	31.54000092	0	0	-0.5900005698	2.558100224	-25.97124481	1.0
29	31.54000092	0	0	-0.5902628303	2.558637142	-25.97711182	1.0
[LeftHandRing3]
26	29.37700081	0	0	-0.4590887427	2.270001888	-22.86400414	1.0
27	29.37700081	0	0	-0.461014837	2.274555683	-22.91262245	1.0
28	29.37700081	0	0	-0.4621008635	2.277121544	-22.93985176	1.0
29	29.37700081	0	0	-0.4623226225	2.277648687	-22.94552231	1.0
[LeftHandRing4]
26	26.47500038	0	0	0	0	0	1.0
27	26.47500038	0	0	0	0	0	1.0
28	26.47500038	0	0	0	0	0	1.0
29	26.47500038	0	0	0	0	0	1.0
[LeftHandPinky1]
26	80.77799988	-4.887000084	-38.06099701	-4.753663063	3.987371922	-39.5564003	1.0
27	80.77799988	-4.887000084	-38.06099701	-4.611356735	4.137583256	-39.51432037	1.0
28	80.77799988	-4.887000084	-38.06099701	-4.387804031	4.342036724	-39.24534607	1.0
29	80.77799988	-4.887000084	-38.06099701	-4.14654541	4.551463604	-38.88326263	1.0
[LeftHandPinky2]
26	36	0	0	-0.4692374468	2.293899775	-23.1188736	1.0
27	36	0	0	-0.464833647	2.283567667	-23.00863838	1.0
28	36	0	0	-0.4569225013	2.264862061	-22.80927467	1.0
29	36	0	0	-0.44588539	2.23845458	-22.52832413	1.0
[LeftHandPinky3]
26	21.14200211	0	0	-0.4338555336	2.209247351	-22.21826935	1.0
27	21.14200211	0	0	-0.4296147525	2.198848486	-22.10803413	1.0
28	21.14200211	0	0	-0.4219999611	2.180020571	-21.90871429	1.0
29	21.14200211	0	0	-0.4113791883	2.153445959	-21.62779427	1.0
[LeftHandPinky4]
26	19.75699997	0	0	0	0	0	1.0
27	19.75699997	0	0	0	0	0	1.0
28	19.75699997	0	0	0	0	0	1.0
29	19.75699997	0	0	0	0	0	1.0
[RightShoulder]
26	-45.70000076	109.4620056	-26.28000069	5.932761192	18.39065552	13.30143642	1.0
27	-45.70000076	109.4620056	-26.28000069	5.936954498	18.45940018	13.20647717	1.0
28	-45.70000076	109.4620056	-26.28000069	5.964886189	18.60878181	13.13799477	1.0
29	-45.70000076	109.4620056	-26.28000069	6.004374504	18.80145073	13.07581711	1.0
[RightArm]
26	-105.9280014	-5.248000145	-22.32099915	30.98328209	12.04920197	64.21747589	1.0
27	-105.9280014	-5.248000145	-22.32099915	30.41934204	11.46191025	63.97045517	1.0
28	-105.9280014	-5.248000145	-22.32099915	29.99151802	10.7572155	63.52490997	1.0
29	-105.9280014	-5.248000145	-22.32099915	29.42321587	9.928980827	63.04189301	1.0
[RightForeArm]
26	-278.414978	0	0	-8.772103683e-06	13.88822556	-8.050121323e-06	1.0
27	-278.414978	0	0	-2.161488965e-06	12.86099529	-5.976588e-06	1.0
28	-278.414978	0	0	5.292963579e-06	12.01100636	3.096889941e-06	1.0
29	-278.414978	0	0	4.145966614e-06	11.30740738	2.594866055e-05	1.0
[RightHand]
26	-283.2879944	0	0.0009999999311	-25.34923744	7.600642204	-1.614344001	1.0
27	-283.2879944	0	0.0009999999311	-23.08024979	6.013861656	-0.5951467156	1.0
28	-283.2879944	0	0.0009999999311	-21.8140316	4.748321533	0.5654732585	1.0
29	-283.2879944	0	0.0009999999311	-21.84745598	4.074543953	1.650709629	1.0
[RightHandPinky1]
26	-80.76699829	-4.885000229	-38.06000137	-3.647580385	-4.446762085	51.19805145	1.0
27	-80.76699829	-4.885000229	-38.06000137	-3.121698141	-4.655753613	45.60012436	1.0
28	-80.76699829	-4.885000229	-38.06000137	-2.756211996	-4.703126907	41.52213287	1.0
29	-80.76699829	-4.885000229	-38.06000137	-2.564876795	-4.688904762	39.30616379	1.0
[RightHandPinky2]
26	-36	0	0.0009999999311	-0.3189994097	-1.690532565	21.39011574	1.0
27	-36	0	0.0009999999311	-0.2898542583	-1.614110231	20.37934685	1.0
28	-36	0	0.0009999999311	-0.2701144814	-1.55990243	19.66650009	1.0
29	-36	0	0.0009999999311	-0.259239465	-1.529106617	19.26312065	1.0
[RightHandPinky3]
26	-21.14200211	0	0	-0.2907152474	-1.616428733	20.39020157	1.0
27	-21.14200211	0	0	-0.2637509108	-1.541965961	19.41182709	1.0
28	-21.14200211	0	0	-0.245289281	-1.488550782	18.71359444	1.0
29	-21.14200211	0	0	-0.2350461036	-1.457978845	18.31524467	1.0
[RightHandPinky4]
26	-19.75699997	0	0	0	0	0	1.0
27	-19.75699997	0	0	0	0	0	1.0
28	-19.75699997	0	0	0	0	0	1.0
29	-19.75699997	0	0	0	0	0	1.0
[RightHandRing1]
26	-91.03599548	-0.4390000105	-18.65100098	-2.771082163	-2.719537497	43.10923004	1.0
27	-91.03599548	-0.4390000105	-18.65100098	-2.381411791	-2.653023243	38.43579483	1.0
28	-91.03599548	-0.4390000105	-18.65100098	-2.09878397	-2.579410076	34.93066025	1.0
29	-91.03599548	-0.4390000105	-18.65100098	-1.942840934	-2.558456898	32.94486618	1.0
[RightHandRing2]
26	-31.54000092	0	0	-1.029436827	-2.912925482	38.92046738	1.0
27	-31.54000092	0	0	-0.8353891969	-2.654993296	34.92681503	1.0
28	-31.54000092	0	0	-0.7130929828	-2.470841646	32.19248581	1.0
29	-31.54000092	0	0	-0.6483629942	-2.36498332	30.65822411	1.0
[RightHandRing3]
26	-29.37700081	0	0	-0.8785548806	-2.71569562	35.8481636	1.0
27	-29.37700081	0	0	-0.6987140775	-2.447857141	31.85735512	1.0
28	-29.37700081	0	0	-0.5865196586	-2.25748229	29.12488365	1.0
29	-29.37700081	0	0	-0.5275938511	-2.148394823	27.59194946	1.0
[RightHandRing4]
26	-26.47500038	0	0	0	0	0	1.0
27	-26.47500038	0	0	0	0	0	1.0
28	-26.47500038	0	0	0	0	0	1.0
29	-26.47500038	0	0	0	0	0	1.0
[RightHandMiddle1]
26	-95.32500458	0	0	-1.79122591	-5.010743618	30.9570446	1.0
27	-95.32500458	0	0	-1.508927226	-4.588070393	27.16121101	1.0
28	-95.32500458	0	0	-1.319216967	-4.167700291	24.50209236	1.0
29	-95.32500458	0	0	-1.230797291	-3.892095089	23.22800255	1.0
[RightHandMiddle2]
26	-36.98199844	0	0	-0.2601676285	-1.531751752	19.27797699	1.0
27	-36.98199844	0	0	-0.2555250227	-1.518418312	19.10357094	1.0
28	-36.98199844	0	0	-0.2515000403	-1.506761193	18.95126152	1.0
29	-36.98199844	0	0	-0.2485133708	-1.498012781	18.83701134	1.0
[RightHandMiddle3]
26	-29.50900078	0	0	-0.2879684865	-1.611049652	20.29269218	1.0
27	-29.50900078	0	0	-0.2830483913	-1.597679257	20.11668205	1.0
28	-29.50900078	0	0	-0.2787781656	-1.585968852	19.96274757	1.0
29	-29.50900078	0	0	-0.2756012678	-1.577207446	19.84752464	1.0
[RightHandMiddle4]
26	-28.3390007	0	0.0009999999311	0	0	0	1.0
27	-28.3390007	0	0.0009999999311	0	0	0	1.0
28	-28.3390007	0	0.0009999999311	0	0	0	1.0
29	-28.3390007	0	0.0009999999311	0	0	0	1.0
[RightHandIndex1]
26	-91.08300018	-5.167999744	22.60099792	0.4093644619	-3.43764472	16.57614326	1.0
27	-91.08300018	-5.167999744	22.60099792	0.4902554452	-2.724014521	13.58049488	1.0
28	-91.08300018	-5.167999744	22.60099792	0.5160779357	-2.088211298	11.47300529	1.0
29	-91.08300018	-5.167999744	22.60099792	0.5060643554	-1.703243017	10.54568672	1.0
[RightHandIndex2]
26	-36.76399994	0	0	-0.1784670055	-1.274461627	15.94277859	1.0
27	-36.76399994	0	0	-0.1794692427	-1.277934432	15.98741627	1.0
28	-36.76399994	0	0	-0.1802111119	-1.280558348	16.02096176	1.0
29	-36.76399994	0	0	-0.1811530739	-1.283794641	16.06263161	1.0
[RightHandIndex3]
26	-28.83100128	0	0	-0.03065231256	-0.5325049162	6.589259148	1.0
27	-28.83100128	0	0	-0.03107181191	-0.536100626	6.633906841	1.0
28	-28.83100128	0	0	-0.03138739616	-0.538790822	6.667441845	1.0
29	-28.83100128	0	0	-0.03177262843	-0.542140305	6.709101677	1.0
[RightHandIndex4]
26	-23.92700005	0	0	0	0	0	1.0
27	-23.92700005	0	0	0	0	0	1.0
28	-23.92700005	0	0	0	0	0	1.0
29	-23.92700005	0	0	0	0	0	1.0
[RightHandThumb1]
26	-24.64799881	-15.72700024	26.82600021	-2.679373503	1.935422182	2.197663546	1.0
27	-24.64799881	-15.72700024	26.82600021	-2.386100769	0.8650544882	2.353461742	1.0
28	-24.64799881	-15.72700024	26.82600021	-2.167364359	0.08318250626	2.401176929	1.0
29	-24.64799881	-15.72700024	26.82600021	-2.0522964	-0.3182591796	2.383006096	1.0
[RightHandThumb2]
26	-32.29800034	-18.64699936	18.64699936	24.30961609	-25.94804001	-25.41244698	1.0
27	-32.29800034	-18.64699936	18.64699936	23.65665817	-25.03364944	-24.98851395	1.0
28	-32.29800034	-18.64699936	18.64699936	22.83530235	-24.37425995	-24.57102966	1.0
29	-32.29800034	-18.64699936	18.64699936	22.40253639	-24.01977348	-24.35527611	1.0
[RightHandThumb3]
26	-26.52600098	-15.31399918	15.31399918	-15.6953783	-4.287290573	-11.07038403	1.0
27	-26.52600098	-15.31399918	15.31399918	-15.44046593	-4.922942638	-11.04505634	1.0
28	-26.52600098	-15.31399918	15.31399918	-15.25808334	-5.395896912	-11.11307621	1.0
29	-26.52600098	-15.31399918	15.31399918	-15.16569996	-5.637721539	-11.14815807	1.0
[RightHandThumb4]
26	-19.54599953	-11.28499985	11.28499985	0	0	0	1.0
27	-19.54599953	-11.28499985	11.28499985	0	0	0	1.0
28	-19.54599953	-11.28499985	11.28499985	0	0	0	1.0
29	-19.54599953	-11.28499985	11.28499985	0	0	0	1.0
[LeftUpLeg]
26	82.07800293	-67.51699829	-15.99599934	-28.68569756	18.16218758	11.33689117	1.0
27	82.07800293	-67.51699829	-15.99599934	-28.33595276	18.16374207	11.33616066	1.0
28	82.07800293	-67.51699829	-15.99599934	-27.96040154	18.14562225	11.32791328	1.0
29	82.07800293	-67.51699829	-15.99599934	-27.58442307	18.11238098	11.30967236	1.0
[LeftLeg]
26	0	-443.7049866	2.845999956	27.70573044	-2.91012764	2.954263687	1.0
27	0	-443.7049866	2.845999956	27.67444992	-2.991614103	2.884066582	1.0
28	0	-443.7049866	2.845999956	27.57912445	-3.030646086	2.867937803	1.0
29	0	-443.7049866	2.845999956	27.45806313	-3.042845249	2.891822815	1.0
[LeftFoot]
26	0	-444.2789917	-29.8219986	-1.742429495	0.407187134	-7.500554085	1.0
27	0	-444.2789917	-29.8219986	-1.724627495	0.4030240476	-7.571618557	1.0
28	0	-444.2789917	-29.8219986	-1.7382164	0.3967560828	-7.623146534	1.0
29	0	-444.2789917	-29.8219986	-1.773477674	0.3883755207	-7.668814659	1.0
[LeftToeBase]
26	0	-87.28699493	107.1060028	-4.13006258	-4.411519967e-06	-3.941788691e-06	1.0
27	0	-87.28699493	107.1060028	-4.159323215	-1.043340148e-06	-4.63357128e-06	1.0
28	0	-87.28699493	107.1060028	-4.190843105	5.135859737e-06	1.866362368e-06	1.0
29	0	-87.28699493	107.1060028	-4.214424133	8.352215559e-07	-1.397480787e-06	1.0
[RightUpLeg]
26	-82.07800293	-67.51699829	-15.99599934	-16.5562706	-6.529968739	12.89363098	1.0
27	-82.07800293	-67.51699829	-15.99599934	-16.25564766	-6.691867828	12.74946117	1.0
28	-82.07800293	-67.51699829	-15.99599934	-15.94436169	-6.806040764	12.62776566	1.0
29	-82.07800293	-67.51699829	-15.99599934	-15.65053463	-6.902296543	12.50483894	1.0
[RightLeg]
26	0	-443.7049866	2.861999989	19.38650703	-8.191355705	-7.273695946	1.0
27	0	-443.7049866	2.861999989	19.45057106	-8.181622505	-7.27550602	1.0
28	0	-443.7049866	2.861999989	19.44692993	-8.173776627	-7.295052528	1.0
29	0	-443.7049866	2.861999989	19.44071007	-8.171224594	-7.301941872	1.0
[RightFoot]
26	0	-444.2770081	-29.83799934	-7.525063038	-7.045559406	3.506788969	1.0
27	0	-444.2770081	-29.83799934	-7.616768837	-6.987465382	3.611361504	1.0
28	0	-444.2770081	-29.83799934	-7.692887783	-6.956247807	3.657437325	1.0
29	0	-444.2770081	-29.83799934	-7.772277355	-6.921677113	3.661190271	1.0
[RightToeBase]
26	0	-87.28699493	107.1060028	-6.978494644	-3.066937779e-06	4.977229082e-07	1.0
27	0	-87.28699493	107.1060028	-6.982293606	3.04237301e-06	2.941123398e-07	1.0
28	0	-87.28699493	107.1060028	-6.986312389	-1.544717179e-06	-3.31869785e-07	1.0
29	0	-87.28699493	107.1060028	-6.989202499	-9.641592413e-08	-1.039245262e-06	1.0
[EndOfFile]
